STARTFONT 2.1
COMMENT Created by fdbbdf
FONT SymbolA10
SIZE 10 78 78
FONTBOUNDINGBOX 14 16 -1 -4
STARTPROPERTIES 4
Ownership "  Copyright (c) 1984 Adobe Systems, Inc.  /adobe/fonts/Times/Greek/fontvec.ps TG12.bits  TOTAL BITMAP BYTES 1790  GUIDELINES 0 0 0 0 6 9 -3 DONE  "
FONT_ASCENT 12
FONT_DESCENT 4
DEFAULT_CHAR 33
ENDPROPERTIES
CHARS 94
STARTCHAR bracerightbt
ENCODING -1 126
SWIDTH 0 0
DWIDTH 6 0
BBX 3 15 0 -4
BITMAP
2000
2000
2000
2000
2000
2000
2000
2000
2000
2000
2000
2000
2000
2000
c000
ENDCHAR
STARTCHAR bracerightmid
ENCODING -1 125
SWIDTH 0 0
DWIDTH 6 0
BBX 3 15 2 -4
BITMAP
8000
8000
8000
8000
8000
8000
4000
2000
4000
8000
8000
8000
8000
8000
8000
ENDCHAR
STARTCHAR bracerighttp
ENCODING -1 124
SWIDTH 0 0
DWIDTH 6 0
BBX 3 15 0 -4
BITMAP
c000
2000
2000
2000
2000
2000
2000
2000
2000
2000
2000
2000
2000
2000
2000
ENDCHAR
STARTCHAR bracketrightbt
ENCODING -1 123
SWIDTH 0 0
DWIDTH 5 0
BBX 3 15 1 -4
BITMAP
2000
2000
2000
2000
2000
2000
2000
2000
2000
2000
2000
2000
2000
2000
e000
ENDCHAR
STARTCHAR bracketrightex
ENCODING -1 122
SWIDTH 0 0
DWIDTH 5 0
BBX 1 15 3 -4
BITMAP
8000
8000
8000
8000
8000
8000
8000
8000
8000
8000
8000
8000
8000
8000
8000
ENDCHAR
STARTCHAR bracketrighttp
ENCODING -1 121
SWIDTH 0 0
DWIDTH 5 0
BBX 3 15 1 -4
BITMAP
e000
2000
2000
2000
2000
2000
2000
2000
2000
2000
2000
2000
2000
2000
2000
ENDCHAR
STARTCHAR parenrightbt
ENCODING -1 120
SWIDTH 0 0
DWIDTH 5 0
BBX 4 16 0 -5
BITMAP
1000
1000
1000
1000
1000
1000
1000
1000
1000
1000
2000
2000
2000
4000
4000
8000
ENDCHAR
STARTCHAR parenrightex
ENCODING -1 119
SWIDTH 0 0
DWIDTH 5 0
BBX 1 15 3 -4
BITMAP
8000
8000
8000
8000
8000
8000
8000
8000
8000
8000
8000
8000
8000
8000
8000
ENDCHAR
STARTCHAR parenrighttp
ENCODING -1 118
SWIDTH 0 0
DWIDTH 5 0
BBX 4 16 0 -5
BITMAP
8000
4000
4000
2000
2000
2000
1000
1000
1000
1000
1000
1000
1000
1000
1000
1000
ENDCHAR
STARTCHAR integralbt
ENCODING -1 117
SWIDTH 0 0
DWIDTH 9 0
BBX 5 15 0 -4
BITMAP
0800
0800
0800
0800
0800
0800
0800
0800
0800
0800
0800
0800
0800
d000
e000
ENDCHAR
STARTCHAR integralex
ENCODING -1 116
SWIDTH 0 0
DWIDTH 9 0
BBX 1 15 4 -4
BITMAP
8000
8000
8000
8000
8000
8000
8000
8000
8000
8000
8000
8000
8000
8000
8000
ENDCHAR
STARTCHAR integraltp
ENCODING -1 115
SWIDTH 0 0
DWIDTH 9 0
BBX 5 15 4 -4
BITMAP
3800
5800
8000
8000
8000
8000
8000
8000
8000
8000
8000
8000
8000
8000
8000
ENDCHAR
STARTCHAR integral
ENCODING -1 114
SWIDTH 0 0
DWIDTH 4 0
BBX 5 15 0 -4
BITMAP
1800
2800
2000
2000
2000
2000
2000
2000
2000
2000
2000
2000
2000
a000
c000
ENDCHAR
STARTCHAR angleright
ENCODING -1 113
SWIDTH 0 0
DWIDTH 4 0
BBX 4 12 0 -3
BITMAP
8000
4000
4000
2000
2000
1000
1000
2000
2000
4000
4000
8000
ENDCHAR
STARTCHAR apple
ENCODING -1 112
SWIDTH 0 0
DWIDTH 10 0
BBX 8 11 1 -1
BITMAP
0600
0e00
0c00
6b00
ff00
fc00
fc00
ff00
ff00
7f00
3600
ENDCHAR
STARTCHAR braceex
ENCODING -1 111
SWIDTH 0 0
DWIDTH 6 0
BBX 1 15 2 -4
BITMAP
8000
8000
8000
8000
8000
8000
8000
8000
8000
8000
8000
8000
8000
8000
8000
ENDCHAR
STARTCHAR braceleftbt
ENCODING -1 110
SWIDTH 0 0
DWIDTH 6 0
BBX 3 15 2 -4
BITMAP
8000
8000
8000
8000
8000
8000
8000
8000
8000
8000
8000
8000
8000
8000
6000
ENDCHAR
STARTCHAR braceleftmid
ENCODING -1 109
SWIDTH 0 0
DWIDTH 6 0
BBX 3 15 0 -4
BITMAP
2000
2000
2000
2000
2000
2000
4000
8000
4000
2000
2000
2000
2000
2000
2000
ENDCHAR
STARTCHAR bracelefttp
ENCODING -1 108
SWIDTH 0 0
DWIDTH 6 0
BBX 3 15 2 -4
BITMAP
6000
8000
8000
8000
8000
8000
8000
8000
8000
8000
8000
8000
8000
8000
8000
ENDCHAR
STARTCHAR bracketleftbt
ENCODING -1 107
SWIDTH 0 0
DWIDTH 5 0
BBX 3 15 1 -4
BITMAP
8000
8000
8000
8000
8000
8000
8000
8000
8000
8000
8000
8000
8000
8000
e000
ENDCHAR
STARTCHAR bracketleftex
ENCODING -1 106
SWIDTH 0 0
DWIDTH 5 0
BBX 1 15 1 -4
BITMAP
8000
8000
8000
8000
8000
8000
8000
8000
8000
8000
8000
8000
8000
8000
8000
ENDCHAR
STARTCHAR bracketlefttp
ENCODING -1 105
SWIDTH 0 0
DWIDTH 5 0
BBX 3 15 1 -4
BITMAP
e000
8000
8000
8000
8000
8000
8000
8000
8000
8000
8000
8000
8000
8000
8000
ENDCHAR
STARTCHAR parenleftbt
ENCODING -1 104
SWIDTH 0 0
DWIDTH 5 0
BBX 4 16 1 -5
BITMAP
8000
8000
8000
8000
8000
8000
8000
8000
8000
8000
4000
4000
4000
2000
2000
1000
ENDCHAR
STARTCHAR parenleftex
ENCODING -1 103
SWIDTH 0 0
DWIDTH 5 0
BBX 1 15 1 -4
BITMAP
8000
8000
8000
8000
8000
8000
8000
8000
8000
8000
8000
8000
8000
8000
8000
ENDCHAR
STARTCHAR parenlefttp
ENCODING -1 102
SWIDTH 0 0
DWIDTH 5 0
BBX 4 16 1 -5
BITMAP
1000
2000
2000
4000
4000
4000
8000
8000
8000
8000
8000
8000
8000
8000
8000
8000
ENDCHAR
STARTCHAR summation
ENCODING -1 101
SWIDTH 0 0
DWIDTH 9 0
BBX 9 11 0 -2
BITMAP
fe00
8200
4000
2000
1000
0800
1000
2000
4000
8100
ff00
ENDCHAR
STARTCHAR trademarksans
ENCODING -1 100
SWIDTH 0 0
DWIDTH 10 0
BBX 10 6 0 2
BITMAP
fa80
2280
2540
2540
2540
2540
ENDCHAR
STARTCHAR copyrightsans
ENCODING -1 99
SWIDTH 0 0
DWIDTH 10 0
BBX 8 9 1 -1
BITMAP
3c00
4200
9900
a500
a100
a500
9900
4200
3c00
ENDCHAR
STARTCHAR registersans
ENCODING -1 98
SWIDTH 0 0
DWIDTH 10 0
BBX 8 9 1 -1
BITMAP
3c00
4200
b900
a500
b900
a500
a500
4200
3c00
ENDCHAR
STARTCHAR angleleft
ENCODING -1 97
SWIDTH 0 0
DWIDTH 4 0
BBX 4 12 0 -3
BITMAP
1000
2000
2000
4000
4000
8000
8000
4000
4000
2000
2000
1000
ENDCHAR
STARTCHAR lozenge
ENCODING -1 96
SWIDTH 0 0
DWIDTH 6 0
BBX 6 9 0 -1
BITMAP
3000
3000
4800
8400
8400
4800
4800
3000
3000
ENDCHAR
STARTCHAR arrowdbldown
ENCODING -1 95
SWIDTH 0 0
DWIDTH 8 0
BBX 5 12 1 -1
BITMAP
5000
5000
5000
5000
5000
5000
5000
5000
5000
d800
7000
2000
ENDCHAR
STARTCHAR arrowdblright
ENCODING -1 94
SWIDTH 0 0
DWIDTH 12 0
BBX 11 5 1 0
BITMAP
0080
ffc0
0060
ffc0
0080
ENDCHAR
STARTCHAR arrowdblup
ENCODING -1 93
SWIDTH 0 0
DWIDTH 8 0
BBX 5 12 1 -2
BITMAP
2000
7000
d800
5000
5000
5000
5000
5000
5000
5000
5000
5000
ENDCHAR
STARTCHAR arrowdblleft
ENCODING -1 92
SWIDTH 0 0
DWIDTH 12 0
BBX 11 5 0 0
BITMAP
2000
7fe0
c000
7fe0
2000
ENDCHAR
STARTCHAR arrowdblboth
ENCODING -1 91
SWIDTH 0 0
DWIDTH 13 0
BBX 11 5 1 0
BITMAP
2080
7fc0
c060
7fc0
2080
ENDCHAR
STARTCHAR logicalor
ENCODING -1 90
SWIDTH 0 0
DWIDTH 8 0
BBX 6 6 1 -1
BITMAP
8400
8400
4800
4800
3000
3000
ENDCHAR
STARTCHAR logicaland
ENCODING -1 89
SWIDTH 0 0
DWIDTH 8 0
BBX 6 6 1 -1
BITMAP
3000
3000
4800
4800
8400
8400
ENDCHAR
STARTCHAR logicalnot
ENCODING -1 88
SWIDTH 0 0
DWIDTH 9 0
BBX 7 4 1 -1
BITMAP
fe00
0200
0200
0200
ENDCHAR
STARTCHAR dotmath
ENCODING -1 87
SWIDTH 0 0
DWIDTH 3 0
BBX 1 1 1 2
BITMAP
8000
ENDCHAR
STARTCHAR radical
ENCODING -1 86
SWIDTH 0 0
DWIDTH 7 0
BBX 7 12 0 -1
BITMAP
0200
0200
0200
0400
0400
0400
6400
a800
2800
2800
1000
1000
ENDCHAR
STARTCHAR product
ENCODING -1 85
SWIDTH 0 0
DWIDTH 10 0
BBX 9 11 0 -2
BITMAP
ff80
4100
4100
4100
4100
4100
4100
4100
4100
4100
e380
ENDCHAR
STARTCHAR trademarkserif
ENCODING -1 84
SWIDTH 0 0
DWIDTH 11 0
BBX 11 9 0 -1
BITMAP
fa80
aa80
2540
2540
2540
7760
0000
0000
0000
ENDCHAR
STARTCHAR copyrightserif
ENCODING -1 83
SWIDTH 0 0
DWIDTH 10 0
BBX 8 9 1 -1
BITMAP
3c00
4200
9900
a900
a100
a500
9900
4200
3c00
ENDCHAR
STARTCHAR registerserif
ENCODING -1 82
SWIDTH 0 0
DWIDTH 10 0
BBX 8 9 1 -1
BITMAP
3c00
4200
f900
a500
b900
a900
ed00
4200
3c00
ENDCHAR
STARTCHAR gradient
ENCODING -1 81
SWIDTH 0 0
DWIDTH 9 0
BBX 8 9 0 -1
BITMAP
ff00
8100
4200
4200
2400
2400
2400
1800
1800
ENDCHAR
STARTCHAR angle
ENCODING -1 80
SWIDTH 0 0
DWIDTH 10 0
BBX 9 9 0 -1
BITMAP
0080
0100
0200
0400
0800
1000
2000
4000
ff80
ENDCHAR
STARTCHAR notelement
ENCODING -1 79
SWIDTH 0 0
DWIDTH 8 0
BBX 6 8 1 -2
BITMAP
0400
7c00
8800
fc00
9000
a000
7c00
4000
ENDCHAR
STARTCHAR element
ENCODING -1 78
SWIDTH 0 0
DWIDTH 8 0
BBX 6 6 1 -1
BITMAP
7c00
8000
fc00
8000
8000
7c00
ENDCHAR
STARTCHAR reflexsubset
ENCODING -1 77
SWIDTH 0 0
DWIDTH 9 0
BBX 8 8 0 -3
BITMAP
3f00
4000
8000
8000
4000
3f00
0000
ff00
ENDCHAR
STARTCHAR propersubset
ENCODING -1 76
SWIDTH 0 0
DWIDTH 9 0
BBX 8 6 0 -1
BITMAP
3f00
4000
8000
8000
4000
3f00
ENDCHAR
STARTCHAR notsubset
ENCODING -1 75
SWIDTH 0 0
DWIDTH 9 0
BBX 8 8 0 -2
BITMAP
0200
3f00
4400
8800
8800
5000
3f00
2000
ENDCHAR
STARTCHAR reflexsuperset
ENCODING -1 74
SWIDTH 0 0
DWIDTH 9 0
BBX 8 8 1 -3
BITMAP
fc00
0200
0100
0100
0200
fc00
0000
ff00
ENDCHAR
STARTCHAR propersuperset
ENCODING -1 73
SWIDTH 0 0
DWIDTH 9 0
BBX 8 6 1 -1
BITMAP
fc00
0200
0100
0100
0200
fc00
ENDCHAR
STARTCHAR union
ENCODING -1 72
SWIDTH 0 0
DWIDTH 10 0
BBX 8 6 1 -1
BITMAP
8100
8100
8100
8100
4200
3c00
ENDCHAR
STARTCHAR intersection
ENCODING -1 71
SWIDTH 0 0
DWIDTH 10 0
BBX 8 6 1 -1
BITMAP
3c00
4200
8100
8100
8100
8100
ENDCHAR
STARTCHAR emptyset
ENCODING -1 70
SWIDTH 0 0
DWIDTH 10 0
BBX 9 9 0 -1
BITMAP
1c80
6300
4300
8480
8880
9080
6100
6300
9c00
ENDCHAR
STARTCHAR circleplus
ENCODING -1 69
SWIDTH 0 0
DWIDTH 10 0
BBX 9 9 0 -1
BITMAP
1c00
6300
4900
8880
be80
8880
4900
6300
1c00
ENDCHAR
STARTCHAR circlemultiply
ENCODING -1 68
SWIDTH 0 0
DWIDTH 10 0
BBX 9 9 0 -1
BITMAP
1c00
6300
6300
9480
8880
9480
6300
6300
1c00
ENDCHAR
STARTCHAR weierstrass
ENCODING -1 67
SWIDTH 0 0
DWIDTH 10 0
BBX 8 11 1 -4
BITMAP
1000
2600
4900
9100
a100
a900
d200
6c00
b000
9000
6000
ENDCHAR
STARTCHAR Rfraktur
ENCODING -1 66
SWIDTH 0 0
DWIDTH 10 0
BBX 9 10 0 -1
BITMAP
6600
9900
9300
d600
5c00
1400
1200
1200
5200
b180
ENDCHAR
STARTCHAR Ifraktur
ENCODING -1 65
SWIDTH 0 0
DWIDTH 9 0
BBX 8 11 0 -2
BITMAP
3f00
6100
4200
6400
0c00
0600
0300
0100
6100
b200
1c00
ENDCHAR
STARTCHAR aleph
ENCODING -1 64
SWIDTH 0 0
DWIDTH 10 0
BBX 7 9 1 -1
BITMAP
8800
ce00
6600
3400
d400
9c00
4c00
6600
e200
ENDCHAR
STARTCHAR carriagereturn
ENCODING -1 63
SWIDTH 0 0
DWIDTH 8 0
BBX 7 8 0 -1
BITMAP
0200
0200
0200
0200
0200
4200
fe00
4000
ENDCHAR
STARTCHAR arrowhorizex
ENCODING -1 62
SWIDTH 0 0
DWIDTH 13 0
BBX 14 1 -1 2
BITMAP
7ffc
ENDCHAR
STARTCHAR arrowvertex
ENCODING -1 61
SWIDTH 0 0
DWIDTH 7 0
BBX 1 15 3 -4
BITMAP
8000
8000
8000
8000
8000
8000
8000
8000
8000
8000
8000
8000
8000
8000
8000
ENDCHAR
STARTCHAR ellipsis
ENCODING -1 60
SWIDTH 0 0
DWIDTH 11 0
BBX 9 1 1 -1
BITMAP
8880
ENDCHAR
STARTCHAR approxequal
ENCODING -1 59
SWIDTH 0 0
DWIDTH 7 0
BBX 6 5 0 1
BITMAP
6400
9800
0000
6400
9800
ENDCHAR
STARTCHAR equivalence
ENCODING -1 58
SWIDTH 0 0
DWIDTH 7 0
BBX 5 5 1 0
BITMAP
f800
0000
f800
0000
f800
ENDCHAR
STARTCHAR notequal
ENCODING -1 57
SWIDTH 0 0
DWIDTH 7 0
BBX 5 7 1 -1
BITMAP
0800
1000
f800
2000
f800
4000
8000
ENDCHAR
STARTCHAR divide
ENCODING -1 56
SWIDTH 0 0
DWIDTH 7 0
BBX 5 5 1 0
BITMAP
2000
0000
f800
0000
2000
ENDCHAR
STARTCHAR bullet
ENCODING -1 55
SWIDTH 0 0
DWIDTH 6 0
BBX 4 4 1 0
BITMAP
6000
f000
f000
6000
ENDCHAR
STARTCHAR partialdiff
ENCODING -1 54
SWIDTH 0 0
DWIDTH 6 0
BBX 5 10 0 -1
BITMAP
6000
9000
0800
0800
0800
6800
9800
8800
8800
7000
ENDCHAR
STARTCHAR proportional
ENCODING -1 53
SWIDTH 0 0
DWIDTH 9 0
BBX 8 4 0 0
BITMAP
7700
8800
8800
7700
ENDCHAR
STARTCHAR multiply
ENCODING -1 52
SWIDTH 0 0
DWIDTH 7 0
BBX 5 5 1 0
BITMAP
8800
5000
2000
5000
8800
ENDCHAR
STARTCHAR greaterequal
ENCODING -1 51
SWIDTH 0 0
DWIDTH 7 0
BBX 6 7 0 -1
BITMAP
c000
3000
0c00
3000
c000
0000
fc00
ENDCHAR
STARTCHAR second
ENCODING -1 50
SWIDTH 0 0
DWIDTH 5 0
BBX 5 3 0 5
BITMAP
2800
5000
a000
ENDCHAR
STARTCHAR plusminus
ENCODING -1 49
SWIDTH 0 0
DWIDTH 7 0
BBX 5 7 1 -1
BITMAP
2000
2000
f800
2000
2000
0000
f800
ENDCHAR
STARTCHAR degree
ENCODING -1 48
SWIDTH 0 0
DWIDTH 5 0
BBX 4 4 0 4
BITMAP
6000
9000
9000
6000
ENDCHAR
STARTCHAR arrowdown
ENCODING -1 47
SWIDTH 0 0
DWIDTH 7 0
BBX 5 15 1 -4
BITMAP
2000
2000
2000
2000
2000
2000
2000
2000
2000
2000
2000
2000
a800
7000
2000
ENDCHAR
STARTCHAR arrowright
ENCODING -1 46
SWIDTH 0 0
DWIDTH 12 0
BBX 12 5 0 0
BITMAP
0040
0020
fff0
0020
0040
ENDCHAR
STARTCHAR arrowup
ENCODING -1 45
SWIDTH 0 0
DWIDTH 7 0
BBX 5 15 1 -4
BITMAP
2000
7000
a800
2000
2000
2000
2000
2000
2000
2000
2000
2000
2000
2000
2000
ENDCHAR
STARTCHAR arrowleft
ENCODING -1 44
SWIDTH 0 0
DWIDTH 12 0
BBX 12 5 0 0
BITMAP
2000
4000
fff0
4000
2000
ENDCHAR
STARTCHAR arrowboth
ENCODING -1 43
SWIDTH 0 0
DWIDTH 13 0
BBX 11 5 1 0
BITMAP
2080
4040
ffe0
4040
2080
ENDCHAR
STARTCHAR spade
ENCODING -1 42
SWIDTH 0 0
DWIDTH 9 0
BBX 7 6 1 -1
BITMAP
1000
3800
7c00
fe00
d600
1000
ENDCHAR
STARTCHAR heart
ENCODING -1 41
SWIDTH 0 0
DWIDTH 9 0
BBX 7 6 1 -1
BITMAP
6c00
fe00
fe00
7c00
3800
1000
ENDCHAR
STARTCHAR diamond
ENCODING -1 40
SWIDTH 0 0
DWIDTH 7 0
BBX 5 6 1 -1
BITMAP
2000
7000
f800
f800
7000
2000
ENDCHAR
STARTCHAR club
ENCODING -1 39
SWIDTH 0 0
DWIDTH 9 0
BBX 7 6 1 -1
BITMAP
3800
3800
d600
fe00
d600
1000
ENDCHAR
STARTCHAR florin
ENCODING -1 38
SWIDTH 0 0
DWIDTH 6 0
BBX 6 12 0 -4
BITMAP
0c00
1400
1000
7800
1000
1000
1000
2000
2000
2000
a000
c000
ENDCHAR
STARTCHAR infinity
ENCODING -1 37
SWIDTH 0 0
DWIDTH 9 0
BBX 9 4 0 0
BITMAP
7700
9880
8c80
7700
ENDCHAR
STARTCHAR fraction
ENCODING -1 36
SWIDTH 0 0
DWIDTH 4 0
BBX 5 9 -1 -1
BITMAP
0800
1000
1000
2000
2000
4000
4000
8000
8000
ENDCHAR
STARTCHAR lessequal
ENCODING -1 35
SWIDTH 0 0
DWIDTH 7 0
BBX 6 7 0 -1
BITMAP
0c00
3000
c000
3000
0c00
0000
fc00
ENDCHAR
STARTCHAR minute
ENCODING -1 34
SWIDTH 0 0
DWIDTH 3 0
BBX 3 3 0 5
BITMAP
2000
4000
8000
ENDCHAR
STARTCHAR Upsilon1
ENCODING -1 33
SWIDTH 0 0
DWIDTH 8 0
BBX 8 9 0 -1
BITMAP
c600
4900
2b00
1000
1000
1000
1000
1000
3800
ENDCHAR
ENDFONT
